<?xml version="1.0" standalone="no"?>
<!DOCTYPE svg PUBLIC "-//W3C//DTD SVG 20010904//EN"
 "http://www.w3.org/TR/2001/REC-SVG-20010904/DTD/svg10.dtd">
<svg version="1.0" xmlns="http://www.w3.org/2000/svg"
 width="600.000000pt" height="600.000000pt" viewBox="0 0 600.000000 600.000000"
 preserveAspectRatio="xMidYMid meet">
<metadata>
Created by potrace 1.11, written by Peter Selinger 2001-2013
</metadata>
<g transform="translate(0.000000,600.000000) scale(0.100000,-0.100000)"
fill="#000000" stroke="none">
<path d="M1720 5060 l0 -80 80 0 80 0 0 80 0 80 -80 0 -80 0 0 -80z"/>
<path d="M1890 5060 l0 -80 80 0 80 0 0 80 0 80 -80 0 -80 0 0 -80z"/>
<path d="M2060 5060 l0 -80 80 0 80 0 0 80 0 80 -80 0 -80 0 0 -80z"/>
<path d="M2230 5060 l0 -80 80 0 80 0 0 80 0 80 -80 0 -80 0 0 -80z"/>
<path d="M2410 5060 l0 -80 80 0 80 0 0 80 0 80 -80 0 -80 0 0 -80z"/>
<path d="M2580 5060 l0 -80 80 0 80 0 0 80 0 80 -80 0 -80 0 0 -80z"/>
<path d="M2750 5060 l0 -80 80 0 80 0 0 80 0 80 -80 0 -80 0 0 -80z"/>
<path d="M2920 5060 l0 -80 80 0 80 0 0 80 0 80 -80 0 -80 0 0 -80z"/>
<path d="M3090 5060 l0 -80 80 0 80 0 0 80 0 80 -80 0 -80 0 0 -80z"/>
<path d="M3260 5060 l0 -80 80 0 80 0 0 80 0 80 -80 0 -80 0 0 -80z"/>
<path d="M3430 5060 l0 -80 80 0 80 0 0 80 0 80 -80 0 -80 0 0 -80z"/>
<path d="M1030 4890 l0 -80 80 0 80 0 0 80 0 80 -80 0 -80 0 0 -80z"/>
<path d="M1210 4890 l0 -80 80 0 80 0 0 80 0 80 -80 0 -80 0 0 -80z"/>
<path d="M1380 4890 l0 -80 80 0 80 0 0 80 0 80 -80 0 -80 0 0 -80z"/>
<path d="M1550 4890 l0 -80 80 0 80 0 0 80 0 80 -80 0 -80 0 0 -80z"/>
<path d="M1720 4890 l0 -80 80 0 80 0 0 80 0 80 -80 0 -80 0 0 -80z"/>
<path d="M1890 4890 l0 -80 80 0 80 0 0 80 0 80 -80 0 -80 0 0 -80z"/>
<path d="M2060 4890 l0 -80 80 0 80 0 0 80 0 80 -80 0 -80 0 0 -80z"/>
<path d="M2230 4890 l0 -80 80 0 80 0 0 80 0 80 -80 0 -80 0 0 -80z"/>
<path d="M2410 4890 l0 -80 80 0 80 0 0 80 0 80 -80 0 -80 0 0 -80z"/>
<path d="M2580 4890 l0 -80 80 0 80 0 0 80 0 80 -80 0 -80 0 0 -80z"/>
<path d="M2750 4890 l0 -80 80 0 80 0 0 80 0 80 -80 0 -80 0 0 -80z"/>
<path d="M2920 4890 l0 -80 80 0 80 0 0 80 0 80 -80 0 -80 0 0 -80z"/>
<path d="M3090 4890 l0 -80 80 0 80 0 0 80 0 80 -80 0 -80 0 0 -80z"/>
<path d="M3260 4890 l0 -80 80 0 80 0 0 80 0 80 -80 0 -80 0 0 -80z"/>
<path d="M3430 4890 l0 -80 80 0 80 0 0 80 0 80 -80 0 -80 0 0 -80z"/>
<path d="M3610 4890 l0 -80 80 0 80 0 0 80 0 80 -80 0 -80 0 0 -80z"/>
<path d="M3780 4890 l0 -80 80 0 80 0 0 80 0 80 -80 0 -80 0 0 -80z"/>
<path d="M3950 4890 l0 -80 80 0 80 0 0 80 0 80 -80 0 -80 0 0 -80z"/>
<path d="M1030 4710 l0 -80 80 0 80 0 0 80 0 80 -80 0 -80 0 0 -80z"/>
<path d="M1210 4710 l0 -80 80 0 80 0 0 80 0 80 -80 0 -80 0 0 -80z"/>
<path d="M1380 4710 l0 -80 80 0 80 0 0 80 0 80 -80 0 -80 0 0 -80z"/>
<path d="M1550 4710 l0 -80 80 0 80 0 0 80 0 80 -80 0 -80 0 0 -80z"/>
<path d="M1720 4710 l0 -80 80 0 80 0 0 80 0 80 -80 0 -80 0 0 -80z"/>
<path d="M1890 4710 l0 -80 80 0 80 0 0 80 0 80 -80 0 -80 0 0 -80z"/>
<path d="M2060 4710 l0 -80 80 0 80 0 0 80 0 80 -80 0 -80 0 0 -80z"/>
<path d="M2230 4710 l0 -80 80 0 80 0 0 80 0 80 -80 0 -80 0 0 -80z"/>
<path d="M2410 4710 l0 -80 80 0 80 0 0 80 0 80 -80 0 -80 0 0 -80z"/>
<path d="M2580 4710 l0 -80 80 0 80 0 0 80 0 80 -80 0 -80 0 0 -80z"/>
<path d="M2750 4710 l0 -80 80 0 80 0 0 80 0 80 -80 0 -80 0 0 -80z"/>
<path d="M2920 4710 l0 -80 80 0 80 0 0 80 0 80 -80 0 -80 0 0 -80z"/>
<path d="M3090 4710 l0 -80 80 0 80 0 0 80 0 80 -80 0 -80 0 0 -80z"/>
<path d="M3260 4710 l0 -80 80 0 80 0 0 80 0 80 -80 0 -80 0 0 -80z"/>
<path d="M3430 4710 l0 -80 80 0 80 0 0 80 0 80 -80 0 -80 0 0 -80z"/>
<path d="M3610 4710 l0 -80 80 0 80 0 0 80 0 80 -80 0 -80 0 0 -80z"/>
<path d="M3780 4710 l0 -80 80 0 80 0 0 80 0 80 -80 0 -80 0 0 -80z"/>
<path d="M3950 4710 l0 -80 80 0 80 0 0 80 0 80 -80 0 -80 0 0 -80z"/>
<path d="M4120 4710 l0 -80 80 0 80 0 0 80 0 80 -80 0 -80 0 0 -80z"/>
<path d="M4290 4710 l0 -80 80 0 80 0 0 80 0 80 -80 0 -80 0 0 -80z"/>
<path d="M1028 4540 l-3 -80 83 0 82 0 0 80 0 80 -79 0 -79 0 -4 -80z"/>
<path d="M1210 4540 l0 -80 80 0 80 0 0 80 0 80 -80 0 -80 0 0 -80z"/>
<path d="M1380 4540 l0 -80 80 0 80 0 0 80 0 80 -80 0 -80 0 0 -80z"/>
<path d="M1550 4540 l0 -80 80 0 80 0 0 80 0 80 -80 0 -80 0 0 -80z"/>
<path d="M1720 4540 l0 -80 80 0 80 0 0 80 0 80 -80 0 -80 0 0 -80z"/>
<path d="M1890 4542 l0 -78 80 -1 80 -1 0 79 0 79 -80 0 -80 0 0 -78z"/>
<path d="M2060 4540 l0 -80 80 2 80 1 -1 79 -1 78 -79 0 -79 0 0 -80z"/>
<path d="M2230 4540 l0 -80 80 0 80 0 0 80 0 80 -80 0 -80 0 0 -80z"/>
<path d="M2410 4540 l0 -79 78 1 79 2 1 78 2 78 -80 0 -80 0 0 -80z"/>
<path d="M2580 4540 l0 -80 80 0 80 0 0 80 0 80 -80 0 -80 0 0 -80z"/>
<path d="M2750 4541 l0 -79 80 0 80 0 0 79 0 79 -80 0 -80 0 0 -79z"/>
<path d="M2922 4543 l3 -78 75 0 75 0 3 78 2 77 -80 0 -81 0 3 -77z"/>
<path d="M3090 4541 l0 -78 80 0 80 -1 0 79 0 79 -80 0 -80 0 0 -79z"/>
<path d="M3260 4540 l0 -80 80 0 80 0 0 80 0 80 -80 0 -80 0 0 -80z"/>
<path d="M3430 4540 l0 -80 80 0 80 0 0 80 0 80 -80 0 -80 0 0 -80z"/>
<path d="M3610 4540 l0 -80 80 0 80 0 0 80 0 80 -80 0 -80 0 0 -80z"/>
<path d="M3780 4540 l0 -80 80 0 80 0 0 80 0 80 -80 0 -80 0 0 -80z"/>
<path d="M3950 4540 l0 -80 80 0 80 0 0 80 0 80 -80 0 -80 0 0 -80z"/>
<path d="M4120 4540 l0 -80 80 0 80 0 0 80 0 80 -80 0 -80 0 0 -80z"/>
<path d="M4290 4540 l0 -80 80 0 80 0 0 80 0 80 -80 0 -80 0 0 -80z"/>
<path d="M4460 4540 l0 -80 79 0 79 0 4 76 c2 42 1 78 -1 80 -2 2 -40 4 -83 4
l-78 0 0 -80z"/>
<path d="M1030 4370 l0 -80 80 0 80 0 0 80 0 80 -80 0 -80 0 0 -80z"/>
<path d="M1210 4370 l0 -80 80 0 80 0 0 80 0 80 -80 0 -80 0 0 -80z"/>
<path d="M1380 4370 l0 -80 80 0 80 0 0 80 0 80 -80 0 -80 0 0 -80z"/>
<path d="M1550 4370 l0 -80 80 0 80 0 0 80 0 80 -80 0 -80 0 0 -80z"/>
<path d="M1720 4371 l0 -79 79 -1 79 -1 0 60 c-1 34 2 63 6 67 3 3 6 -24 6
-61 l0 -66 80 1 80 1 0 79 0 79 -79 0 c-54 0 -81 -4 -84 -12 -4 -10 -6 -10 -6
0 -1 8 -24 12 -81 12 l-80 0 0 -79z"/>
<path d="M2060 4370 l0 -81 79 2 80 2 0 78 0 79 -79 0 -80 0 0 -80z"/>
<path d="M2230 4370 l0 -80 80 0 80 0 0 80 0 80 -80 0 -80 0 0 -80z"/>
<path d="M2408 4368 c-2 -46 -2 -120 0 -165 l3 -82 77 2 77 2 3 78 2 77 -81 0
c-45 0 -80 3 -76 6 3 3 39 6 79 5 l74 -1 2 80 2 80 -79 0 -80 0 -3 -82z"/>
<path d="M2580 4370 l0 -79 79 0 79 1 1 79 1 79 -80 0 -80 0 0 -80z"/>
<path d="M2750 4370 l0 -80 80 1 80 1 0 79 0 79 -80 0 -80 0 0 -80z"/>
<path d="M2920 4370 l0 -80 80 0 80 0 0 80 0 80 -80 0 -80 0 0 -80z"/>
<path d="M3090 4370 l0 -80 80 0 80 0 0 80 0 80 -80 0 -80 0 0 -80z"/>
<path d="M3260 4370 l0 -80 80 0 80 0 0 80 0 80 -80 0 -80 0 0 -80z"/>
<path d="M3430 4370 l0 -80 80 0 80 0 0 80 0 80 -80 0 -80 0 0 -80z"/>
<path d="M3610 4370 l0 -80 80 0 80 0 0 80 0 80 -80 0 -80 0 0 -80z"/>
<path d="M3780 4370 l0 -80 80 0 80 0 0 80 0 80 -80 0 -80 0 0 -80z"/>
<path d="M3950 4370 l0 -80 80 0 80 0 0 80 0 80 -80 0 -80 0 0 -80z"/>
<path d="M4120 4370 l0 -80 80 0 80 0 0 80 0 80 -80 0 -80 0 0 -80z"/>
<path d="M4290 4370 l0 -80 80 0 80 0 0 80 0 80 -80 0 -80 0 0 -80z"/>
<path d="M4460 4370 l0 -80 80 0 80 0 0 80 0 80 -80 0 -80 0 0 -80z"/>
<path d="M860 4200 l0 -80 80 0 80 0 0 80 0 80 -80 0 -80 0 0 -80z"/>
<path d="M1030 4200 l0 -80 80 0 80 0 0 80 0 80 -80 0 -80 0 0 -80z"/>
<path d="M1210 4200 l0 -80 80 0 80 0 0 80 0 80 -80 0 -80 0 0 -80z"/>
<path d="M1380 4200 l0 -80 80 0 80 0 0 80 0 80 -80 0 -80 0 0 -80z"/>
<path d="M1550 4200 l0 -79 165 0 165 0 0 79 0 80 -80 0 -79 0 -4 -72 -3 -73
-2 73 -2 72 -80 0 -80 0 0 -80z"/>
<path d="M1890 4200 l0 -80 80 0 80 0 0 80 0 80 -80 0 -80 0 0 -80z"/>
<path d="M2060 4200 l0 -80 80 0 80 0 0 80 0 80 -80 0 -80 0 0 -80z"/>
<path d="M2230 4201 l0 -80 80 2 80 1 0 78 0 78 -80 0 -80 0 0 -79z"/>
<path d="M2580 4201 l0 -79 79 1 79 1 0 78 0 78 -79 0 -79 0 0 -79z"/>
<path d="M2752 4203 l3 -78 76 -2 76 -2 2 80 2 79 -81 0 -81 0 3 -77z"/>
<path d="M2920 4201 l0 -79 79 1 78 0 0 78 0 79 -78 0 -79 0 0 -79z"/>
<path d="M3090 4201 l0 -79 80 1 80 1 -1 78 -1 78 -79 0 -79 0 0 -79z"/>
<path d="M3260 4200 l0 -80 80 0 80 0 0 80 0 80 -80 0 -80 0 0 -80z"/>
<path d="M3430 4200 l0 -80 80 0 80 0 0 80 0 80 -80 0 -80 0 0 -80z"/>
<path d="M3609 4276 c-2 -2 -3 -38 -1 -80 l4 -76 79 0 79 0 0 80 0 80 -78 0
c-43 0 -81 -2 -83 -4z"/>
<path d="M3780 4200 l0 -80 80 0 80 0 0 80 0 80 -80 0 -80 0 0 -80z"/>
<path d="M3950 4200 l0 -80 80 0 80 0 0 80 0 80 -80 0 -80 0 0 -80z"/>
<path d="M4120 4200 l0 -80 80 0 80 0 0 80 0 80 -80 0 -80 0 0 -80z"/>
<path d="M4290 4200 l0 -80 80 0 80 0 0 80 0 80 -80 0 -80 0 0 -80z"/>
<path d="M4460 4200 l0 -80 80 0 80 0 0 80 0 80 -80 0 -80 0 0 -80z"/>
<path d="M4630 4200 l0 -80 80 0 80 0 0 80 0 80 -80 0 -80 0 0 -80z"/>
<path d="M690 4030 l0 -80 80 0 80 0 0 80 0 80 -80 0 -80 0 0 -80z"/>
<path d="M860 4030 l0 -80 80 0 80 0 0 80 0 80 -80 0 -80 0 0 -80z"/>
<path d="M1030 4030 l0 -80 80 0 80 0 0 80 0 80 -80 0 -80 0 0 -80z"/>
<path d="M1210 4030 l0 -80 80 0 80 0 0 80 0 80 -80 0 -80 0 0 -80z"/>
<path d="M1380 4030 l0 -80 80 0 80 0 0 80 0 80 -80 0 -80 0 0 -80z"/>
<path d="M1550 4030 l0 -80 80 0 80 0 0 80 0 80 -80 0 -80 0 0 -80z"/>
<path d="M1720 4030 l0 -80 80 0 80 0 0 80 0 80 -80 0 -80 0 0 -80z"/>
<path d="M1890 4030 l0 -80 80 0 80 0 0 80 0 80 -80 0 -80 0 0 -80z"/>
<path d="M2060 4030 l0 -80 80 0 80 0 0 80 0 80 -80 0 -80 0 0 -80z"/>
<path d="M2230 4030 l0 -80 80 0 80 0 0 80 0 80 -80 0 -80 0 0 -80z"/>
<path d="M2410 4030 l0 -80 80 0 80 0 0 80 0 80 -80 0 -80 0 0 -80z"/>
<path d="M2580 4031 l0 -80 79 1 79 0 0 79 0 79 -79 0 -79 0 0 -79z"/>
<path d="M2750 4030 l0 -80 80 2 80 2 0 78 0 78 -80 0 -80 0 0 -80z"/>
<path d="M2920 4030 l0 -80 79 2 80 2 -1 78 0 78 -79 0 -79 0 0 -80z"/>
<path d="M3090 4030 l0 -80 79 1 78 1 2 79 2 79 -80 0 -81 0 0 -80z"/>
<path d="M3260 4030 l0 -80 80 0 80 0 0 80 0 80 -80 0 -80 0 0 -80z"/>
<path d="M3430 4030 l0 -80 80 0 80 0 0 80 0 80 -80 0 -80 0 0 -80z"/>
<path d="M3610 4030 l0 -80 80 0 80 0 0 80 0 80 -80 0 -80 0 0 -80z"/>
<path d="M3780 4030 l0 -80 80 0 80 0 0 80 0 80 -80 0 -80 0 0 -80z"/>
<path d="M3950 4030 l0 -80 80 0 80 0 0 80 0 80 -80 0 -80 0 0 -80z"/>
<path d="M4120 4030 l0 -80 80 0 80 0 0 80 0 80 -80 0 -80 0 0 -80z"/>
<path d="M4290 4030 l0 -80 80 0 80 0 0 80 0 80 -80 0 -80 0 0 -80z"/>
<path d="M4460 4030 l0 -80 80 0 80 0 0 80 0 80 -80 0 -80 0 0 -80z"/>
<path d="M4630 4030 l0 -80 80 0 80 0 0 80 0 80 -80 0 -80 0 0 -80z"/>
<path d="M4810 4030 l0 -80 79 0 79 0 4 76 c2 42 1 78 -1 80 -2 2 -40 4 -83 4
l-78 0 0 -80z"/>
<path d="M350 3860 l0 -80 80 0 80 0 0 80 0 80 -80 0 -80 0 0 -80z"/>
<path d="M520 3860 l0 -80 80 0 80 0 0 80 0 80 -80 0 -80 0 0 -80z"/>
<path d="M690 3860 l0 -80 80 0 80 0 0 80 0 80 -80 0 -80 0 0 -80z"/>
<path d="M860 3860 l0 -80 80 0 80 0 0 80 0 80 -80 0 -80 0 0 -80z"/>
<path d="M1030 3860 l0 -80 80 0 80 0 0 80 0 80 -80 0 -80 0 0 -80z"/>
<path d="M1209 3936 c-2 -2 -3 -38 -1 -80 l4 -76 79 0 79 0 0 80 0 80 -78 0
c-43 0 -81 -2 -83 -4z"/>
<path d="M1380 3860 l0 -80 80 0 80 0 0 80 0 80 -80 0 -80 0 0 -80z"/>
<path d="M1550 3860 l0 -80 80 0 80 0 0 80 0 80 -80 0 -80 0 0 -80z"/>
<path d="M1720 3861 l0 -78 78 1 77 1 2 78 3 77 -80 0 -80 0 0 -79z"/>
<path d="M1890 3860 l0 -80 80 0 80 0 0 80 0 80 -80 0 -80 0 0 -80z"/>
<path d="M2060 3860 l0 -80 80 0 80 0 0 80 0 80 -80 0 -80 0 0 -80z"/>
<path d="M2230 3860 l0 -80 80 0 80 0 0 80 0 80 -80 0 -80 0 0 -80z"/>
<path d="M2409 3936 c-2 -2 -3 -38 -1 -80 l4 -76 79 0 79 0 0 80 0 80 -78 0
c-43 0 -81 -2 -83 -4z"/>
<path d="M2580 3860 l0 -80 80 0 80 0 0 80 0 80 -80 0 -80 0 0 -80z"/>
<path d="M2750 3860 l0 -80 80 0 80 0 0 80 0 80 -80 0 -80 0 0 -80z"/>
<path d="M2920 3861 l0 -78 80 1 79 0 -1 78 -1 78 -79 0 -78 0 0 -79z"/>
<path d="M3090 3861 l0 -79 80 1 80 0 0 79 0 78 -80 0 -80 0 0 -79z"/>
<path d="M3260 3860 l0 -80 80 0 80 0 0 80 0 80 -80 0 -80 0 0 -80z"/>
<path d="M3430 3860 l0 -80 80 0 80 0 0 80 0 80 -80 0 -80 0 0 -80z"/>
<path d="M3610 3860 l0 -80 80 0 80 0 0 80 0 80 -80 0 -80 0 0 -80z"/>
<path d="M3780 3860 l0 -80 80 0 80 0 0 80 0 80 -80 0 -80 0 0 -80z"/>
<path d="M3950 3860 l0 -80 80 0 80 0 0 80 0 80 -80 0 -80 0 0 -80z"/>
<path d="M4120 3860 l0 -80 80 0 80 0 0 80 0 80 -80 0 -80 0 0 -80z"/>
<path d="M4290 3860 l0 -80 80 0 80 0 0 80 0 80 -80 0 -80 0 0 -80z"/>
<path d="M4460 3860 l0 -80 80 0 80 0 0 80 0 80 -80 0 -80 0 0 -80z"/>
<path d="M4630 3860 l0 -80 80 0 80 0 0 80 0 80 -80 0 -80 0 0 -80z"/>
<path d="M4809 3936 c-2 -2 -3 -38 -1 -80 l4 -76 79 0 79 0 0 80 0 80 -78 0
c-43 0 -81 -2 -83 -4z"/>
<path d="M4980 3860 l0 -80 80 0 80 0 0 80 0 80 -80 0 -80 0 0 -80z"/>
<path d="M5150 3860 l0 -80 80 0 80 0 0 80 0 80 -80 0 -80 0 0 -80z"/>
<path d="M180 3690 l0 -80 80 0 80 0 0 80 0 80 -80 0 -80 0 0 -80z"/>
<path d="M350 3690 l0 -80 80 0 80 0 0 80 0 80 -80 0 -80 0 0 -80z"/>
<path d="M520 3690 l0 -80 80 0 80 0 0 80 0 80 -80 0 -80 0 0 -80z"/>
<path d="M690 3690 l0 -80 80 0 80 0 0 80 0 80 -80 0 -80 0 0 -80z"/>
<path d="M860 3690 l0 -80 80 0 80 0 0 80 0 80 -80 0 -80 0 0 -80z"/>
<path d="M1030 3690 l0 -80 80 0 80 0 0 80 0 80 -80 0 -80 0 0 -80z"/>
<path d="M1210 3690 l0 -80 80 0 80 0 0 80 0 80 -80 0 -80 0 0 -80z"/>
<path d="M1380 3690 l0 -80 80 0 80 0 0 80 0 80 -80 0 -80 0 0 -80z"/>
<path d="M1550 3690 l0 -80 80 0 80 0 0 80 0 80 -80 0 -80 0 0 -80z"/>
<path d="M1720 3690 l0 -80 80 0 80 0 0 80 0 80 -80 0 -80 0 0 -80z"/>
<path d="M1890 3690 l0 -80 80 0 80 0 0 80 0 80 -80 0 -80 0 0 -80z"/>
<path d="M2060 3691 l0 -79 80 -1 79 0 0 79 0 80 -80 0 -79 0 0 -79z"/>
<path d="M2230 3690 l0 -80 80 0 80 0 0 80 0 80 -80 0 -80 0 0 -80z"/>
<path d="M2410 3690 l0 -80 80 0 80 0 0 80 0 80 -80 0 -80 0 0 -80z"/>
<path d="M2580 3690 l0 -80 80 0 80 0 0 80 0 80 -80 0 -80 0 0 -80z"/>
<path d="M2750 3690 l0 -80 80 0 80 0 0 80 0 80 -80 0 -80 0 0 -80z"/>
<path d="M2920 3690 l0 -80 80 0 80 0 0 80 0 80 -80 0 -80 0 0 -80z"/>
<path d="M3090 3690 l0 -80 80 0 80 0 0 80 0 80 -80 0 -80 0 0 -80z"/>
<path d="M3260 3690 l0 -80 80 0 80 0 0 80 0 80 -80 0 -80 0 0 -80z"/>
<path d="M3430 3690 l0 -80 80 0 80 0 0 80 0 80 -80 0 -80 0 0 -80z"/>
<path d="M3610 3690 l0 -80 80 0 80 0 0 80 0 80 -80 0 -80 0 0 -80z"/>
<path d="M3780 3690 l0 -80 80 0 80 0 0 80 0 80 -80 0 -80 0 0 -80z"/>
<path d="M3950 3690 l0 -80 80 0 80 0 0 80 0 80 -80 0 -80 0 0 -80z"/>
<path d="M4120 3690 l0 -80 80 0 80 0 0 80 0 80 -80 0 -80 0 0 -80z"/>
<path d="M4290 3690 l0 -80 80 0 80 0 0 80 0 80 -80 0 -80 0 0 -80z"/>
<path d="M4460 3690 l0 -80 80 0 80 0 0 80 0 80 -80 0 -80 0 0 -80z"/>
<path d="M4630 3690 l0 -80 80 0 80 0 0 80 0 80 -80 0 -80 0 0 -80z"/>
<path d="M4810 3690 l0 -80 80 0 80 0 0 80 0 80 -80 0 -80 0 0 -80z"/>
<path d="M4980 3690 l0 -80 80 0 80 0 0 80 0 80 -80 0 -80 0 0 -80z"/>
<path d="M5150 3690 l0 -80 80 0 80 0 0 80 0 80 -80 0 -80 0 0 -80z"/>
<path d="M5320 3690 l0 -80 80 0 80 0 0 80 0 80 -80 0 -80 0 0 -80z"/>
<path d="M180 3510 l0 -80 80 0 80 0 0 80 0 80 -80 0 -80 0 0 -80z"/>
<path d="M350 3510 l0 -80 80 0 80 0 0 80 0 80 -80 0 -80 0 0 -80z"/>
<path d="M520 3510 l0 -80 80 0 80 0 0 80 0 80 -80 0 -80 0 0 -80z"/>
<path d="M690 3510 l0 -80 80 0 80 0 0 80 0 80 -80 0 -80 0 0 -80z"/>
<path d="M860 3510 l0 -80 79 0 78 0 2 80 2 80 -81 0 -80 0 0 -80z"/>
<path d="M1030 3510 l0 -80 80 0 80 0 0 80 0 80 -80 0 -80 0 0 -80z"/>
<path d="M1210 3510 l0 -80 80 0 80 0 0 80 0 80 -80 0 -80 0 0 -80z"/>
<path d="M1380 3510 l0 -80 80 0 80 0 0 80 0 80 -80 0 -80 0 0 -80z"/>
<path d="M1550 3510 l0 -80 80 0 80 0 0 80 0 80 -80 0 -80 0 0 -80z"/>
<path d="M1720 3510 l0 -80 80 0 80 0 0 80 0 80 -80 0 -80 0 0 -80z"/>
<path d="M1890 3510 l0 -80 80 0 80 0 0 80 0 80 -80 0 -80 0 0 -80z"/>
<path d="M2060 3510 l0 -80 80 0 80 0 0 80 0 80 -80 0 -80 0 0 -80z"/>
<path d="M2230 3510 l0 -80 80 0 80 0 0 80 0 80 -80 0 -80 0 0 -80z"/>
<path d="M2410 3510 l0 -80 80 0 80 0 0 80 0 80 -80 0 -80 0 0 -80z"/>
<path d="M2580 3510 l0 -80 80 0 80 0 0 80 0 80 -80 0 -80 0 0 -80z"/>
<path d="M2750 3510 l0 -80 80 0 80 0 0 80 0 80 -80 0 -80 0 0 -80z"/>
<path d="M2920 3510 l0 -80 80 0 80 0 0 80 0 80 -80 0 -80 0 0 -80z"/>
<path d="M3090 3510 l0 -80 80 0 80 0 0 80 0 80 -80 0 -80 0 0 -80z"/>
<path d="M3260 3510 l0 -80 80 0 80 0 0 80 0 80 -80 0 -80 0 0 -80z"/>
<path d="M3430 3510 l0 -80 80 0 80 0 0 80 0 80 -80 0 -80 0 0 -80z"/>
<path d="M3610 3510 l0 -80 80 0 80 0 0 80 0 80 -80 0 -80 0 0 -80z"/>
<path d="M3780 3510 l0 -80 80 0 80 0 0 80 0 80 -80 0 -80 0 0 -80z"/>
<path d="M3950 3510 l0 -80 80 0 80 0 0 80 0 80 -80 0 -80 0 0 -80z"/>
<path d="M4120 3510 l0 -80 80 0 80 0 0 80 0 80 -80 0 -80 0 0 -80z"/>
<path d="M4290 3510 l0 -80 80 0 80 0 0 80 0 80 -80 0 -80 0 0 -80z"/>
<path d="M4460 3510 l0 -80 80 0 80 0 0 80 0 80 -80 0 -80 0 0 -80z"/>
<path d="M4630 3510 l0 -80 80 0 80 0 0 80 0 80 -80 0 -80 0 0 -80z"/>
<path d="M4810 3510 l0 -80 80 0 80 0 0 80 0 80 -80 0 -80 0 0 -80z"/>
<path d="M4980 3510 l0 -80 80 0 80 0 0 80 0 80 -80 0 -80 0 0 -80z"/>
<path d="M5150 3510 l0 -80 80 0 80 0 0 80 0 80 -80 0 -80 0 0 -80z"/>
<path d="M5320 3510 l0 -80 80 0 80 0 0 80 0 80 -80 0 -80 0 0 -80z"/>
<path d="M350 3340 l0 -80 80 0 80 0 0 80 0 80 -80 0 -80 0 0 -80z"/>
<path d="M520 3340 l0 -80 80 0 80 0 0 80 0 80 -80 0 -80 0 0 -80z"/>
<path d="M690 3341 l0 -79 80 1 80 0 0 79 0 78 -80 0 -80 0 0 -79z"/>
<path d="M860 3340 l0 -80 80 0 80 0 0 80 0 80 -80 0 -80 0 0 -80z"/>
<path d="M1030 3340 l0 -80 80 0 80 0 0 80 0 80 -80 0 -80 0 0 -80z"/>
<path d="M1210 3340 l0 -80 80 0 80 0 0 80 0 80 -80 0 -80 0 0 -80z"/>
<path d="M1380 3340 l0 -80 80 0 80 0 0 80 0 80 -80 0 -80 0 0 -80z"/>
<path d="M1550 3345 c0 -41 3 -76 8 -76 4 -1 39 -2 77 -3 l71 -2 -1 75 0 76
-77 3 -78 3 0 -76z"/>
<path d="M1720 3340 l0 -80 80 0 80 0 0 80 0 80 -80 0 -80 0 0 -80z"/>
<path d="M1890 3340 l0 -80 80 0 80 0 0 80 0 80 -80 0 -80 0 0 -80z"/>
<path d="M2060 3340 l0 -80 80 0 80 0 0 80 0 80 -80 0 -80 0 0 -80z"/>
<path d="M2230 3340 l0 -80 80 0 80 0 0 80 0 80 -80 0 -80 0 0 -80z"/>
<path d="M2410 3340 l0 -80 80 0 80 0 0 80 0 80 -80 0 -80 0 0 -80z"/>
<path d="M2580 3340 l0 -80 80 0 80 0 0 80 0 80 -80 0 -80 0 0 -80z"/>
<path d="M2750 3340 l0 -80 80 0 80 0 0 80 0 80 -80 0 -80 0 0 -80z"/>
<path d="M2920 3340 l0 -81 78 3 77 3 3 78 3 77 -81 0 -80 0 0 -80z"/>
<path d="M3090 3340 l0 -80 80 0 80 0 0 80 0 80 -80 0 -80 0 0 -80z"/>
<path d="M3260 3340 l0 -80 80 0 80 0 0 80 0 80 -80 0 -80 0 0 -80z"/>
<path d="M3430 3340 l0 -80 80 0 80 0 0 80 0 80 -80 0 -80 0 0 -80z"/>
<path d="M3610 3340 l0 -80 80 0 80 0 0 80 0 80 -80 0 -80 0 0 -80z"/>
<path d="M3780 3340 l0 -80 80 0 80 0 0 80 0 80 -80 0 -80 0 0 -80z"/>
<path d="M3950 3340 l0 -80 80 0 80 0 0 80 0 80 -80 0 -80 0 0 -80z"/>
<path d="M4120 3340 l0 -80 80 0 80 0 0 80 0 80 -80 0 -80 0 0 -80z"/>
<path d="M4290 3340 l0 -80 80 0 80 0 0 80 0 80 -80 0 -80 0 0 -80z"/>
<path d="M4460 3340 l0 -80 80 0 80 0 0 80 0 80 -80 0 -80 0 0 -80z"/>
<path d="M4630 3340 l0 -80 80 0 80 0 0 80 0 80 -80 0 -80 0 0 -80z"/>
<path d="M4810 3340 l0 -80 80 0 80 0 0 80 0 80 -80 0 -80 0 0 -80z"/>
<path d="M4980 3340 l0 -80 80 0 80 0 0 80 0 80 -80 0 -80 0 0 -80z"/>
<path d="M5150 3340 l0 -80 80 0 80 0 0 80 0 80 -80 0 -80 0 0 -80z"/>
<path d="M5320 3340 l0 -80 80 0 80 0 0 80 0 80 -80 0 -80 0 0 -80z"/>
<path d="M5490 3340 l0 -80 80 0 80 0 0 80 0 80 -80 0 -80 0 0 -80z"/>
<path d="M520 3170 l0 -80 80 0 80 0 0 80 0 80 -80 0 -80 0 0 -80z"/>
<path d="M690 3170 l0 -80 80 0 80 0 0 80 0 80 -80 0 -80 0 0 -80z"/>
<path d="M860 3170 l0 -80 80 0 80 0 0 80 0 80 -80 0 -80 0 0 -80z"/>
<path d="M1030 3170 l0 -80 80 0 80 0 0 80 0 80 -80 0 -80 0 0 -80z"/>
<path d="M1210 3170 l0 -80 80 0 80 0 0 80 0 80 -80 0 -80 0 0 -80z"/>
<path d="M1380 3170 l0 -80 80 0 80 0 0 80 0 80 -80 0 -80 0 0 -80z"/>
<path d="M1550 3172 l0 -78 78 0 78 0 0 78 1 78 -79 0 -78 0 0 -78z"/>
<path d="M1720 3173 l0 -78 78 0 78 0 -1 75 -1 75 -77 3 -77 3 0 -78z"/>
<path d="M1890 3172 l0 -78 78 0 77 1 1 77 0 78 -78 0 -78 0 0 -78z"/>
<path d="M2060 3172 l0 -77 78 0 78 0 0 77 -1 78 -77 0 -78 0 0 -78z"/>
<path d="M2230 3172 l0 -78 77 1 77 0 1 75 0 75 -77 3 -78 3 0 -79z"/>
<path d="M2410 3172 l0 -78 78 0 78 1 0 77 1 78 -79 0 -78 0 0 -78z"/>
<path d="M2580 3172 l0 -78 77 1 78 0 0 65 c1 36 -1 71 -3 78 -3 8 -28 12 -78
12 l-74 0 0 -78z"/>
<path d="M2750 3172 l0 -77 160 0 c88 0 161 2 161 5 1 3 2 38 3 78 l2 72 -78
0 -78 0 0 -76 c0 -41 -4 -73 -8 -70 -4 2 -7 36 -6 75 l2 71 -79 0 -79 0 0 -78z"/>
<path d="M3090 3172 l0 -78 78 0 78 1 0 77 1 78 -79 0 -78 0 0 -78z"/>
<path d="M3260 3170 l0 -80 80 0 80 0 0 80 0 80 -80 0 -80 0 0 -80z"/>
<path d="M3430 3170 l0 -80 80 0 80 0 0 80 0 80 -80 0 -80 0 0 -80z"/>
<path d="M3610 3170 l0 -80 80 0 80 0 0 80 0 80 -80 0 -80 0 0 -80z"/>
<path d="M3780 3170 l0 -80 80 0 80 0 0 80 0 80 -80 0 -80 0 0 -80z"/>
<path d="M3950 3170 l0 -80 80 0 80 0 0 80 0 80 -80 0 -80 0 0 -80z"/>
<path d="M4120 3170 l0 -80 80 0 80 0 0 80 0 80 -80 0 -80 0 0 -80z"/>
<path d="M4290 3170 l0 -80 80 0 80 0 0 80 0 80 -80 0 -80 0 0 -80z"/>
<path d="M4460 3170 l0 -80 80 0 80 0 0 80 0 80 -80 0 -80 0 0 -80z"/>
<path d="M4630 3170 l0 -80 80 0 80 0 0 80 0 80 -80 0 -80 0 0 -80z"/>
<path d="M4810 3170 l0 -80 80 0 80 0 0 80 0 80 -80 0 -80 0 0 -80z"/>
<path d="M4980 3170 l0 -80 80 0 80 0 0 80 0 80 -80 0 -80 0 0 -80z"/>
<path d="M5150 3170 l0 -80 80 0 80 0 0 80 0 80 -80 0 -80 0 0 -80z"/>
<path d="M5320 3170 l0 -80 80 0 80 0 0 80 0 80 -80 0 -80 0 0 -80z"/>
<path d="M5490 3170 l0 -80 80 0 80 0 0 80 0 80 -80 0 -80 0 0 -80z"/>
<path d="M520 3000 l0 -80 80 0 80 0 0 80 0 80 -80 0 -80 0 0 -80z"/>
<path d="M690 3000 l0 -80 80 0 80 0 0 80 0 80 -80 0 -80 0 0 -80z"/>
<path d="M860 3000 l0 -80 80 0 80 0 0 80 0 80 -80 0 -80 0 0 -80z"/>
<path d="M1030 3000 l0 -80 80 0 80 0 0 80 0 80 -80 0 -80 0 0 -80z"/>
<path d="M1210 3000 l0 -80 80 0 80 0 0 80 0 80 -80 0 -80 0 0 -80z"/>
<path d="M1380 3000 l0 -80 80 0 80 0 0 80 0 80 -80 0 -80 0 0 -80z"/>
<path d="M1552 3003 l3 -77 76 -1 75 -1 0 75 -1 76 -78 3 -78 3 3 -78z"/>
<path d="M1722 3003 l3 -78 72 0 c43 -1 74 3 76 9 1 6 3 40 2 76 l0 65 -78 3
-78 3 3 -78z"/>
<path d="M1890 3002 l0 -77 78 -1 78 0 0 78 0 78 -78 0 -78 0 0 -78z"/>
<path d="M2062 3003 l3 -78 60 -1 c94 0 92 -3 90 79 l-1 72 -77 3 -78 3 3 -78z"/>
<path d="M2230 3002 l0 -78 77 1 78 1 0 77 0 77 -77 0 -78 0 0 -78z"/>
<path d="M2410 3002 l0 -78 78 1 77 1 0 77 1 77 -78 0 -78 0 0 -78z"/>
<path d="M2582 3003 l3 -78 76 0 76 0 -1 75 -1 75 -78 3 -78 3 3 -78z"/>
<path d="M2750 3002 l0 -77 78 -1 78 0 0 78 0 78 -78 0 -78 0 0 -78z"/>
<path d="M2922 3003 l3 -78 68 0 c37 0 71 2 75 5 4 3 8 38 8 78 l-1 72 -78 0
-78 0 3 -77z"/>
<path d="M3090 3002 l0 -78 78 1 77 1 1 77 1 77 -79 0 -78 0 0 -78z"/>
<path d="M3260 3001 l0 -78 79 0 79 0 1 78 1 79 -80 0 -80 0 0 -79z"/>
<path d="M3430 3000 l0 -80 80 0 80 0 0 80 0 80 -80 0 -80 0 0 -80z"/>
<path d="M3609 3076 c-2 -2 -3 -38 -1 -80 l4 -76 79 0 79 0 0 80 0 80 -78 0
c-43 0 -81 -2 -83 -4z"/>
<path d="M3780 3000 l0 -80 80 0 80 0 0 80 0 80 -80 0 -80 0 0 -80z"/>
<path d="M3950 3001 l0 -79 165 -1 165 -1 0 80 0 80 -80 0 -79 0 -4 -72 -3
-73 -2 73 -2 72 -80 0 -80 0 0 -79z"/>
<path d="M4290 3000 l0 -80 80 0 80 0 0 80 0 80 -80 0 -80 0 0 -80z"/>
<path d="M4460 3000 l0 -80 80 0 80 0 0 80 0 80 -80 0 -80 0 0 -80z"/>
<path d="M4630 3000 l0 -80 80 0 80 0 0 80 0 80 -80 0 -80 0 0 -80z"/>
<path d="M4810 3000 l0 -80 80 0 80 0 0 80 0 80 -80 0 -80 0 0 -80z"/>
<path d="M4980 3000 l0 -80 80 0 80 0 0 80 0 80 -80 0 -80 0 0 -80z"/>
<path d="M5150 3000 l0 -80 80 0 80 0 0 80 0 80 -80 0 -80 0 0 -80z"/>
<path d="M5320 3000 l0 -80 80 0 80 0 0 80 0 80 -80 0 -80 0 0 -80z"/>
<path d="M5490 3000 l0 -80 80 0 80 0 0 80 0 80 -80 0 -80 0 0 -80z"/>
<path d="M860 2830 l0 -80 80 0 80 0 0 80 0 80 -80 0 -80 0 0 -80z"/>
<path d="M1030 2830 l0 -80 80 0 80 0 0 80 0 80 -80 0 -80 0 0 -80z"/>
<path d="M1210 2830 l0 -80 80 0 80 0 0 80 0 80 -80 0 -80 0 0 -80z"/>
<path d="M1382 2833 l3 -78 75 0 74 0 1 78 1 77 -78 0 -79 0 3 -77z"/>
<path d="M1550 2832 l0 -78 78 0 77 1 1 77 0 78 -78 0 -78 0 0 -78z"/>
<path d="M1722 2833 l3 -78 75 0 76 0 0 77 -1 78 -78 0 -78 0 3 -77z"/>
<path d="M1892 2833 l3 -77 76 -1 75 -1 0 78 0 78 -79 0 -78 0 3 -77z"/>
<path d="M2060 2832 l0 -77 78 0 78 0 0 77 -1 78 -77 0 -78 0 0 -78z"/>
<path d="M2230 2833 l0 -79 78 0 78 1 -1 75 0 75 -78 3 -77 3 0 -78z"/>
<path d="M2410 2832 l0 -78 78 0 79 1 -1 77 0 78 -78 0 -78 0 0 -78z"/>
<path d="M2582 2833 l3 -78 75 0 75 0 0 78 1 77 -79 0 -78 0 3 -77z"/>
<path d="M2750 2832 l0 -78 78 0 78 1 0 77 0 78 -78 0 -78 0 0 -78z"/>
<path d="M2922 2833 l3 -78 70 0 c39 0 76 -4 84 -9 11 -7 12 -6 5 5 -10 17
-13 129 -2 129 4 0 8 -28 10 -62 l3 -62 75 -1 76 -1 0 78 0 78 -77 0 c-52 0
-79 -4 -83 -12 -5 -10 -7 -10 -12 0 -4 8 -30 12 -80 12 l-75 0 3 -77z"/>
<path d="M3260 2831 l0 -80 78 2 77 2 3 78 3 77 -81 0 -80 0 0 -79z"/>
<path d="M3430 2830 l0 -79 80 1 80 1 0 79 0 78 -80 0 -80 0 0 -80z"/>
<path d="M3610 2830 l0 -80 80 0 80 0 0 80 0 80 -80 0 -80 0 0 -80z"/>
<path d="M3780 2830 l0 -80 80 0 80 0 0 80 0 80 -80 0 -80 0 0 -80z"/>
<path d="M3950 2830 l0 -80 80 0 80 0 0 80 0 80 -80 0 -80 0 0 -80z"/>
<path d="M4120 2830 l0 -80 80 0 80 0 0 80 0 80 -80 0 -80 0 0 -80z"/>
<path d="M4290 2830 l0 -80 80 0 80 0 0 80 0 80 -80 0 -80 0 0 -80z"/>
<path d="M4460 2830 l0 -80 80 0 80 0 0 80 0 80 -80 0 -80 0 0 -80z"/>
<path d="M4630 2830 l0 -80 80 0 80 0 0 80 0 80 -80 0 -80 0 0 -80z"/>
<path d="M4810 2830 l0 -80 80 0 80 0 0 80 0 80 -80 0 -80 0 0 -80z"/>
<path d="M4980 2830 l0 -80 80 0 80 0 0 80 0 80 -80 0 -80 0 0 -80z"/>
<path d="M5150 2830 l0 -80 80 0 80 0 0 80 0 80 -80 0 -80 0 0 -80z"/>
<path d="M5320 2830 l0 -80 80 0 80 0 0 80 0 80 -80 0 -80 0 0 -80z"/>
<path d="M5490 2830 l0 -80 80 0 80 0 0 80 0 80 -80 0 -80 0 0 -80z"/>
<path d="M1803 2742 l-83 -3 0 -79 0 -80 80 0 80 0 2 83 2 82 5 -80 6 -80 75
0 75 0 0 77 1 77 -81 3 c-44 2 -117 2 -162 0z"/>
<path d="M1030 2660 l0 -80 80 0 80 0 0 80 0 80 -80 0 -80 0 0 -80z"/>
<path d="M1209 2736 c-2 -2 -3 -37 -1 -78 l3 -73 77 -1 77 0 1 78 0 78 -76 0
c-42 0 -79 -2 -81 -4z"/>
<path d="M1380 2663 l0 -78 78 0 79 0 -1 75 -2 75 -77 3 -77 3 0 -78z"/>
<path d="M1550 2665 c0 -41 3 -76 8 -76 4 -1 39 -2 77 -3 l71 -2 0 78 0 78
-78 0 -78 0 0 -75z"/>
<path d="M2062 2663 l3 -78 76 0 76 0 -1 77 -1 78 -78 0 -78 0 3 -77z"/>
<path d="M2230 2666 c0 -50 4 -75 13 -78 6 -2 41 -4 77 -3 l65 0 0 75 0 75
-77 3 -78 3 0 -75z"/>
<path d="M2410 2662 l0 -77 78 -1 78 0 0 78 -1 78 -77 0 -78 0 0 -78z"/>
<path d="M2580 2663 l0 -78 78 0 77 0 0 75 0 75 -78 3 -77 3 0 -78z"/>
<path d="M2750 2662 l0 -78 78 1 77 0 0 78 1 77 -78 0 -78 0 0 -78z"/>
<path d="M2922 2663 l3 -78 60 0 c94 -2 91 -4 90 78 l0 72 -78 3 -78 3 3 -78z"/>
<path d="M3090 2662 l0 -78 78 0 78 1 0 77 -1 78 -77 0 -78 0 0 -78z"/>
<path d="M3260 2661 l0 -79 78 1 77 2 3 78 3 77 -81 0 -80 0 0 -79z"/>
<path d="M3430 2661 l0 -79 80 1 80 1 0 78 0 78 -80 0 -80 0 0 -79z"/>
<path d="M3609 2736 c-2 -2 -3 -38 -1 -80 l4 -76 79 0 79 0 0 80 0 80 -78 0
c-43 0 -81 -2 -83 -4z"/>
<path d="M3780 2660 l0 -80 80 0 80 0 0 80 0 80 -80 0 -80 0 0 -80z"/>
<path d="M3950 2660 l0 -80 80 0 80 0 0 80 0 80 -80 0 -80 0 0 -80z"/>
<path d="M4120 2660 l0 -80 80 0 80 0 0 80 0 80 -80 0 -80 0 0 -80z"/>
<path d="M4290 2660 l0 -80 80 0 80 0 0 80 0 80 -80 0 -80 0 0 -80z"/>
<path d="M4460 2660 l0 -80 80 0 80 0 0 80 0 80 -80 0 -80 0 0 -80z"/>
<path d="M4630 2660 l0 -80 80 0 80 0 0 80 0 80 -80 0 -80 0 0 -80z"/>
<path d="M4810 2660 l0 -80 80 0 80 0 0 80 0 80 -80 0 -80 0 0 -80z"/>
<path d="M4980 2660 l0 -80 80 0 80 0 0 80 0 80 -80 0 -80 0 0 -80z"/>
<path d="M5150 2660 l0 -80 80 0 80 0 0 80 0 80 -80 0 -80 0 0 -80z"/>
<path d="M5320 2660 l0 -80 80 0 80 0 0 80 0 80 -80 0 -80 0 0 -80z"/>
<path d="M5490 2660 l0 -80 80 0 80 0 0 80 0 80 -80 0 -80 0 0 -80z"/>
<path d="M1030 2490 l0 -80 80 0 80 0 0 80 0 80 -80 0 -80 0 0 -80z"/>
<path d="M1212 2493 l3 -77 76 -1 76 -1 -1 78 0 78 -78 0 -79 0 3 -77z"/>
<path d="M1382 2493 l3 -78 75 0 76 0 0 77 -1 78 -78 0 -78 0 3 -77z"/>
<path d="M1550 2492 l0 -77 78 -1 79 0 -1 78 0 78 -78 0 -78 0 0 -78z"/>
<path d="M1720 2490 l0 -80 80 0 80 0 0 80 0 80 -80 0 -80 0 0 -80z"/>
<path d="M1892 2493 l3 -78 75 0 75 -1 1 78 0 78 -78 0 -79 0 3 -77z"/>
<path d="M2060 2492 l0 -77 77 0 77 0 1 78 1 77 -78 0 -78 0 0 -78z"/>
<path d="M2230 2493 l0 -79 78 0 78 1 -1 75 -1 75 -77 3 -77 3 0 -78z"/>
<path d="M2412 2493 l3 -78 75 0 75 0 0 78 0 77 -78 0 -78 0 3 -77z"/>
<path d="M2579 2558 c-2 -7 -2 -42 1 -78 l5 -65 76 -1 75 -1 -2 71 c-1 39 -2
74 -3 79 -2 13 -149 8 -152 -5z"/>
<path d="M2752 2493 l3 -78 75 0 75 1 1 77 1 77 -79 0 -79 0 3 -77z"/>
<path d="M2920 2491 l0 -79 79 -1 78 -1 0 80 1 80 -79 0 -79 0 0 -79z"/>
<path d="M3090 2490 l0 -80 80 0 80 0 0 80 0 80 -80 0 -80 0 0 -80z"/>
<path d="M3260 2491 l0 -78 79 -2 79 -2 1 81 1 80 -80 0 -80 0 0 -79z"/>
<path d="M3430 2490 l0 -80 79 0 79 0 1 80 0 80 -79 0 -80 0 0 -80z"/>
<path d="M3610 2490 l0 -80 80 1 80 1 0 79 0 79 -80 0 -80 0 0 -80z"/>
<path d="M3780 2490 l0 -80 80 0 80 0 0 80 0 80 -80 0 -80 0 0 -80z"/>
<path d="M3950 2490 l0 -80 80 0 80 0 0 80 0 80 -80 0 -80 0 0 -80z"/>
<path d="M4120 2490 l0 -80 80 0 80 0 0 80 0 80 -80 0 -80 0 0 -80z"/>
<path d="M4290 2490 l0 -80 80 0 80 0 0 80 0 80 -80 0 -80 0 0 -80z"/>
<path d="M4460 2490 l0 -80 80 0 80 0 0 80 0 80 -80 0 -80 0 0 -80z"/>
<path d="M4630 2490 l0 -80 80 0 80 0 0 80 0 80 -80 0 -80 0 0 -80z"/>
<path d="M4810 2490 l0 -80 80 0 80 0 0 80 0 80 -80 0 -80 0 0 -80z"/>
<path d="M4980 2490 l0 -80 80 0 80 0 0 80 0 80 -80 0 -80 0 0 -80z"/>
<path d="M5150 2490 l0 -80 80 0 80 0 0 80 0 80 -80 0 -80 0 0 -80z"/>
<path d="M5320 2490 l0 -80 80 0 80 0 0 80 0 80 -80 0 -80 0 0 -80z"/>
<path d="M5490 2490 l0 -80 80 0 80 0 0 80 0 80 -80 0 -80 0 0 -80z"/>
<path d="M5660 2490 l0 -80 80 0 80 0 0 80 0 80 -80 0 -80 0 0 -80z"/>
<path d="M2408 2313 l3 -83 80 0 79 0 0 79 0 80 -82 3 -83 3 3 -82z"/>
<path d="M2917 2305 c1 -49 2 -124 3 -166 l0 -76 78 0 78 -1 1 79 2 79 -81 0
c-45 0 -78 3 -74 8 4 4 40 7 79 7 l71 0 1 77 1 77 -80 3 -81 3 2 -90z"/>
<path d="M1030 2310 l0 -80 80 0 80 0 0 80 0 80 -80 0 -80 0 0 -80z"/>
<path d="M1210 2312 l0 -77 73 1 c39 1 75 2 78 3 3 0 5 35 5 76 l-1 75 -77 0
-78 0 0 -78z"/>
<path d="M1380 2312 l0 -78 78 1 78 0 0 78 -1 77 -77 0 -78 0 0 -78z"/>
<path d="M1550 2312 l0 -78 75 1 c41 0 76 2 76 5 1 3 2 38 4 78 l1 72 -78 0
-78 0 0 -78z"/>
<path d="M1718 2310 l-3 -80 83 0 82 0 0 80 0 80 -79 0 -79 0 -4 -80z"/>
<path d="M1890 2312 l0 -78 78 0 78 1 0 77 0 78 -78 0 -78 0 0 -78z"/>
<path d="M2062 2313 l3 -78 75 0 74 0 1 78 1 77 -78 0 -79 0 3 -77z"/>
<path d="M2230 2313 l0 -78 78 0 78 -1 -1 76 0 75 -78 3 -77 3 0 -78z"/>
<path d="M2580 2312 l0 -77 75 0 c41 0 76 2 76 5 1 3 2 38 3 78 l2 72 -78 0
-78 0 0 -78z"/>
<path d="M2750 2312 l0 -79 78 2 77 1 1 65 c0 35 -1 70 -4 77 -3 8 -28 12 -78
12 l-74 0 0 -78z"/>
<path d="M3090 2310 l0 -79 80 1 80 1 0 79 0 78 -80 0 -80 0 0 -80z"/>
<path d="M3260 2311 l0 -80 80 1 80 1 0 78 0 79 -80 0 -80 0 0 -79z"/>
<path d="M3430 2310 l0 -79 78 2 77 2 3 78 3 77 -81 0 -80 0 0 -80z"/>
<path d="M3610 2310 l0 -80 80 1 80 1 0 79 0 79 -80 0 -80 0 0 -80z"/>
<path d="M3780 2310 l0 -80 80 0 80 0 0 80 0 80 -80 0 -80 0 0 -80z"/>
<path d="M3950 2310 l0 -80 80 0 80 0 0 80 0 80 -80 0 -80 0 0 -80z"/>
<path d="M4120 2310 l0 -80 80 0 80 0 0 80 0 80 -80 0 -80 0 0 -80z"/>
<path d="M4290 2310 l0 -80 80 0 80 0 0 80 0 80 -80 0 -80 0 0 -80z"/>
<path d="M4460 2310 l0 -80 80 0 80 0 0 80 0 80 -80 0 -80 0 0 -80z"/>
<path d="M4630 2310 l0 -80 80 0 80 0 0 80 0 80 -80 0 -80 0 0 -80z"/>
<path d="M4810 2310 l0 -80 80 0 80 0 0 80 0 80 -80 0 -80 0 0 -80z"/>
<path d="M4980 2310 l0 -80 80 0 80 0 0 80 0 80 -80 0 -80 0 0 -80z"/>
<path d="M5150 2310 l0 -80 80 0 80 0 0 80 0 80 -80 0 -80 0 0 -80z"/>
<path d="M5320 2310 l0 -80 80 0 80 0 0 80 0 80 -80 0 -80 0 0 -80z"/>
<path d="M5490 2310 l0 -80 80 0 80 0 0 80 0 80 -80 0 -80 0 0 -80z"/>
<path d="M5660 2310 l0 -80 80 0 80 0 0 80 0 80 -80 0 -80 0 0 -80z"/>
<path d="M1028 2140 l-3 -80 83 0 82 0 0 80 0 80 -79 0 -79 0 -4 -80z"/>
<path d="M1210 2142 l0 -78 78 1 77 1 1 77 2 77 -79 0 -79 0 0 -78z"/>
<path d="M1382 2143 l3 -78 73 0 c39 -1 73 1 73 4 1 3 2 39 3 79 l1 72 -78 0
-78 0 3 -77z"/>
<path d="M1550 2142 l0 -78 69 1 c38 0 73 4 78 8 4 5 8 40 9 78 l1 69 -78 0
-79 0 0 -78z"/>
<path d="M1720 2140 l0 -80 80 0 80 0 0 80 0 80 -80 0 -80 0 0 -80z"/>
<path d="M1890 2142 l0 -77 78 -1 78 0 0 78 -1 78 -77 0 -78 0 0 -78z"/>
<path d="M2060 2143 l0 -78 78 0 77 0 0 75 0 75 -78 3 -77 3 0 -78z"/>
<path d="M2230 2141 l0 -79 80 0 79 -1 0 80 -1 79 -79 0 -79 0 0 -79z"/>
<path d="M2410 2140 l0 -80 80 0 80 0 0 80 0 80 -80 0 -80 0 0 -80z"/>
<path d="M2582 2143 l3 -78 75 0 75 0 0 75 0 75 -78 3 -78 3 3 -78z"/>
<path d="M2750 2143 l0 -78 78 -1 78 0 -1 76 0 75 -77 3 -78 3 0 -78z"/>
<path d="M3090 2140 l0 -80 80 0 80 0 0 80 0 80 -80 0 -80 0 0 -80z"/>
<path d="M3260 2140 l0 -80 80 0 80 0 0 80 0 80 -80 0 -80 0 0 -80z"/>
<path d="M3430 2141 l0 -80 80 1 80 1 0 78 0 79 -80 0 -80 0 0 -79z"/>
<path d="M3610 2141 l0 -79 79 0 79 0 0 79 0 79 -79 0 -79 0 0 -79z"/>
<path d="M3780 2140 l0 -80 80 0 80 0 0 80 0 80 -80 0 -80 0 0 -80z"/>
<path d="M3950 2140 l0 -80 80 0 80 0 0 80 0 80 -80 0 -80 0 0 -80z"/>
<path d="M4120 2140 l0 -80 80 0 80 0 0 80 0 80 -80 0 -80 0 0 -80z"/>
<path d="M4290 2140 l0 -80 80 0 80 0 0 80 0 80 -80 0 -80 0 0 -80z"/>
<path d="M4460 2140 l0 -80 80 0 80 0 0 80 0 80 -80 0 -80 0 0 -80z"/>
<path d="M4630 2140 l0 -80 80 0 80 0 0 80 0 80 -80 0 -80 0 0 -80z"/>
<path d="M4809 2216 c-2 -2 -3 -38 -1 -80 l4 -76 79 0 79 0 0 80 0 80 -78 0
c-43 0 -81 -2 -83 -4z"/>
<path d="M4980 2140 l0 -80 80 0 80 0 0 80 0 80 -80 0 -80 0 0 -80z"/>
<path d="M5150 2140 l0 -80 80 0 80 0 0 80 0 80 -80 0 -80 0 0 -80z"/>
<path d="M5320 2140 l0 -80 80 0 80 0 0 80 0 80 -80 0 -80 0 0 -80z"/>
<path d="M5490 2140 l0 -80 80 0 80 0 0 80 0 80 -80 0 -80 0 0 -80z"/>
<path d="M1710 2058 c6 -7 10 -47 10 -90 l0 -78 80 0 80 0 0 80 0 80 -78 0
c-43 0 -83 5 -90 10 -9 7 -9 7 -2 -2z"/>
<path d="M1378 1975 l3 -81 77 1 76 0 1 77 1 77 -81 3 -80 3 3 -80z"/>
<path d="M1030 1970 l0 -80 80 0 80 0 0 80 0 80 -80 0 -80 0 0 -80z"/>
<path d="M1210 1972 l0 -78 78 0 78 1 0 75 -1 75 -78 3 -77 3 0 -79z"/>
<path d="M1550 1973 l0 -79 78 0 78 1 -1 75 0 75 -77 3 -78 3 0 -78z"/>
<path d="M1890 1972 l0 -78 78 0 78 1 0 77 0 78 -78 0 -78 0 0 -78z"/>
<path d="M2060 1972 l0 -78 78 1 78 0 -1 78 0 77 -77 0 -78 0 0 -78z"/>
<path d="M2230 1973 l0 -79 78 0 78 1 -1 75 -1 75 -77 3 -77 3 0 -78z"/>
<path d="M2408 1968 c-2 -46 -2 -120 0 -165 l3 -83 79 0 80 0 0 80 0 79 -82 4
-83 3 83 2 82 2 0 80 0 80 -79 0 -80 0 -3 -82z"/>
<path d="M2580 1972 l0 -78 77 1 78 0 1 65 c0 36 -2 71 -4 78 -3 8 -28 12 -78
12 l-74 0 0 -78z"/>
<path d="M2750 1972 l0 -78 78 0 77 1 1 77 1 78 -79 0 -78 0 0 -78z"/>
<path d="M2920 1970 l0 -80 78 1 79 1 1 60 c1 82 12 88 12 7 l0 -65 78 0 77 1
1 77 0 78 -77 0 c-53 0 -79 -4 -82 -12 -4 -10 -6 -10 -6 0 -1 8 -24 12 -81 12
l-80 0 0 -80z"/>
<path d="M3260 1970 l0 -80 80 0 80 0 0 80 0 80 -80 0 -80 0 0 -80z"/>
<path d="M3430 1971 l0 -79 80 0 80 0 -1 79 -1 79 -79 0 -79 0 0 -79z"/>
<path d="M3610 1970 l0 -80 79 0 79 0 1 80 1 80 -80 0 -80 0 0 -80z"/>
<path d="M3780 1970 l0 -80 80 0 80 0 0 80 0 80 -80 0 -80 0 0 -80z"/>
<path d="M3950 1971 l0 -79 80 -1 80 0 0 79 0 80 -80 0 -80 0 0 -79z"/>
<path d="M4120 1970 l0 -80 80 0 80 0 0 80 0 80 -80 0 -80 0 0 -80z"/>
<path d="M4290 1970 l0 -80 80 0 80 0 0 80 0 80 -80 0 -80 0 0 -80z"/>
<path d="M4460 1970 l0 -80 80 0 80 0 0 80 0 80 -80 0 -80 0 0 -80z"/>
<path d="M4630 1970 l0 -80 80 0 80 0 0 80 0 80 -80 0 -80 0 0 -80z"/>
<path d="M4808 1968 c-2 -46 -2 -120 0 -165 l3 -83 79 0 80 0 0 80 0 79 -82 4
-83 3 83 2 82 2 0 80 0 80 -79 0 -80 0 -3 -82z"/>
<path d="M4980 1970 l0 -80 80 0 80 0 0 80 0 80 -80 0 -80 0 0 -80z"/>
<path d="M5150 1970 l0 -80 80 0 80 0 0 80 0 80 -80 0 -80 0 0 -80z"/>
<path d="M5320 1970 l0 -80 80 0 80 0 0 80 0 80 -80 0 -80 0 0 -80z"/>
<path d="M5490 1970 l0 -80 80 0 80 0 0 80 0 80 -80 0 -80 0 0 -80z"/>
<path d="M1030 1800 l0 -80 80 0 80 0 0 80 0 80 -80 0 -80 0 0 -80z"/>
<path d="M1210 1802 l0 -78 78 0 79 1 -1 77 -1 78 -77 0 -78 0 0 -78z"/>
<path d="M1380 1803 l0 -78 73 1 c39 1 75 2 78 3 3 0 5 34 4 74 l-1 72 -77 3
-77 3 0 -78z"/>
<path d="M1550 1802 l0 -78 78 1 77 1 0 74 0 75 -77 3 -78 3 0 -79z"/>
<path d="M1720 1800 l0 -80 80 0 80 0 0 80 0 80 -80 0 -80 0 0 -80z"/>
<path d="M1890 1802 l0 -78 73 2 c39 1 74 2 77 3 3 0 5 35 6 76 l0 75 -78 0
-78 0 0 -78z"/>
<path d="M2062 1803 l3 -78 75 0 75 1 0 74 0 75 -78 3 -78 3 3 -78z"/>
<path d="M2230 1802 l0 -78 77 1 78 1 0 77 1 77 -78 0 -78 0 0 -78z"/>
<path d="M2582 1803 l3 -78 160 0 160 0 1 78 1 77 -78 0 -79 0 0 -72 c0 -39
-3 -68 -7 -64 -5 4 -8 35 -8 69 l0 62 -78 3 -78 3 3 -78z"/>
<path d="M2920 1803 l0 -78 73 1 c39 1 74 2 78 3 3 0 5 34 4 74 l0 72 -78 3
-77 3 0 -78z"/>
<path d="M3090 1803 l0 -78 78 -1 77 0 0 76 0 75 -77 3 -78 3 0 -78z"/>
<path d="M3260 1800 l0 -80 80 0 80 0 0 80 0 80 -80 0 -80 0 0 -80z"/>
<path d="M3430 1800 l0 -80 80 0 80 0 0 80 0 80 -80 0 -80 0 0 -80z"/>
<path d="M3610 1802 l0 -79 80 0 80 -1 0 79 0 79 -80 0 -80 0 0 -78z"/>
<path d="M3780 1800 l0 -80 80 0 80 0 0 80 0 80 -80 0 -80 0 0 -80z"/>
<path d="M3950 1802 l0 -78 79 -1 78 -1 2 79 2 79 -80 0 -81 0 0 -78z"/>
<path d="M4120 1800 l0 -80 79 2 79 1 0 79 -1 78 -78 0 -79 0 0 -80z"/>
<path d="M4290 1800 l0 -80 80 0 80 0 0 80 0 80 -80 0 -80 0 0 -80z"/>
<path d="M4460 1801 l0 -79 78 1 77 2 2 78 1 77 -79 0 -79 0 0 -79z"/>
<path d="M4630 1801 l0 -79 78 2 77 1 3 78 2 77 -80 0 -80 0 0 -79z"/>
<path d="M4980 1800 l0 -80 83 0 82 0 -3 80 -4 80 -79 0 -79 0 0 -80z"/>
<path d="M5318 1798 l-3 -83 81 3 81 3 2 80 2 79 -80 0 -80 0 -3 -82z"/>
<path d="M1030 1630 l0 -80 80 0 80 0 0 80 0 80 -80 0 -80 0 0 -80z"/>
<path d="M1210 1630 l0 -80 80 0 80 0 0 80 0 80 -80 0 -80 0 0 -80z"/>
<path d="M1380 1632 l0 -77 77 0 77 0 1 78 1 77 -78 0 -78 0 0 -78z"/>
<path d="M1550 1632 l0 -78 78 0 78 0 0 78 0 78 -78 0 -78 0 0 -78z"/>
<path d="M1720 1630 l0 -80 80 0 80 0 0 80 0 80 -80 0 -80 0 0 -80z"/>
<path d="M1890 1632 l0 -78 78 0 78 1 0 77 0 78 -78 0 -78 0 0 -78z"/>
<path d="M2060 1632 l0 -78 77 1 77 0 1 78 1 77 -78 0 -78 0 0 -78z"/>
<path d="M2230 1632 l0 -78 78 0 78 1 0 77 -1 78 -77 0 -78 0 0 -78z"/>
<path d="M2410 1630 l0 -80 80 0 80 0 0 80 0 80 -80 0 -80 0 0 -80z"/>
<path d="M2582 1633 l3 -78 72 0 c42 -1 74 4 76 10 3 9 2 116 -2 138 0 4 -35
7 -76 7 l-76 0 3 -77z"/>
<path d="M2750 1632 l0 -78 78 0 77 1 1 77 1 78 -79 0 -78 0 0 -78z"/>
<path d="M2922 1633 l3 -78 70 0 c39 -1 76 -5 84 -9 11 -7 12 -6 5 5 -10 17
-13 129 -2 129 4 0 8 -28 10 -62 l3 -62 75 -1 75 -1 1 78 0 78 -77 0 c-52 0
-79 -4 -83 -12 -5 -10 -7 -10 -12 0 -4 8 -30 12 -80 12 l-75 0 3 -77z"/>
<path d="M3260 1632 l0 -77 75 0 c41 -1 76 2 76 5 1 3 2 38 3 78 l2 72 -78 0
-78 0 0 -78z"/>
<path d="M3428 1628 l-3 -83 83 3 82 3 0 80 0 79 -79 0 -80 0 -3 -82z"/>
<path d="M3608 1628 c-2 -46 -2 -120 0 -165 l3 -83 79 0 80 0 0 80 0 80 -82 0
c-45 0 -78 3 -75 7 4 3 40 6 81 6 l75 -1 0 79 0 79 -79 0 -79 0 -3 -82z"/>
<path d="M3780 1630 l0 -80 80 0 80 0 0 80 0 80 -80 0 -80 0 0 -80z"/>
<path d="M3950 1630 l0 -81 80 3 80 2 0 78 0 78 -80 0 -80 0 0 -80z"/>
<path d="M4120 1630 l0 -79 79 0 78 1 1 79 1 79 -79 0 -80 0 0 -80z"/>
<path d="M4290 1630 l0 -79 80 0 80 0 0 80 0 79 -80 0 -80 0 0 -80z"/>
<path d="M4460 1631 l0 -78 80 -1 80 -1 0 80 0 79 -80 0 -80 0 0 -79z"/>
<path d="M4630 1631 l0 -79 80 0 80 0 -1 79 -1 79 -79 0 -79 0 0 -79z"/>
<path d="M4810 1630 l0 -80 80 0 80 0 0 80 0 80 -80 0 -80 0 0 -80z"/>
<path d="M1210 1460 l0 -80 80 0 80 0 0 80 0 80 -80 0 -80 0 0 -80z"/>
<path d="M1380 1460 l0 -80 80 0 80 0 0 80 0 80 -80 0 -80 0 0 -80z"/>
<path d="M1550 1460 l0 -80 80 0 80 0 0 80 0 80 -80 0 -80 0 0 -80z"/>
<path d="M1720 1460 l0 -80 80 0 80 0 0 80 0 80 -80 0 -80 0 0 -80z"/>
<path d="M1890 1462 l0 -78 73 2 c39 1 74 2 77 3 3 0 6 35 6 76 l0 75 -78 0
-78 0 0 -78z"/>
<path d="M2062 1463 l3 -77 75 -2 75 -1 0 76 0 76 -78 3 -78 3 3 -78z"/>
<path d="M2230 1462 l0 -78 77 1 78 1 0 77 0 77 -77 0 -78 0 0 -78z"/>
<path d="M2409 1536 c-2 -2 -3 -38 -1 -80 l4 -76 79 0 79 0 0 80 0 80 -78 0
c-43 0 -81 -2 -83 -4z"/>
<path d="M2580 1460 l0 -80 80 0 80 0 0 80 0 80 -80 0 -80 0 0 -80z"/>
<path d="M2750 1462 l0 -77 78 -1 77 0 1 78 0 78 -78 0 -78 0 0 -78z"/>
<path d="M2922 1463 l3 -78 60 0 c93 -2 91 -4 90 78 l0 72 -78 3 -78 3 3 -78z"/>
<path d="M3090 1462 l0 -78 73 2 c39 1 74 2 78 3 3 0 5 35 5 76 l-1 75 -77 0
-78 0 0 -78z"/>
<path d="M3262 1463 l3 -78 75 0 75 0 0 75 0 75 -78 3 -78 3 3 -78z"/>
<path d="M3430 1460 l0 -80 80 0 80 0 0 80 0 80 -80 0 -80 0 0 -80z"/>
<path d="M3780 1460 l0 -80 80 0 80 0 0 80 0 80 -80 0 -80 0 0 -80z"/>
<path d="M3950 1462 l0 -78 79 -1 79 -2 1 80 1 79 -80 0 -80 0 0 -78z"/>
<path d="M4122 1463 l3 -78 75 0 75 0 2 78 3 77 -81 0 -80 0 3 -77z"/>
<path d="M4290 1460 l0 -80 80 0 80 0 0 80 0 80 -80 0 -80 0 0 -80z"/>
<path d="M4460 1461 l0 -79 78 1 77 2 3 78 3 77 -81 0 -80 0 0 -79z"/>
<path d="M4630 1460 l0 -80 80 0 80 0 0 80 0 80 -80 0 -80 0 0 -80z"/>
<path d="M4810 1460 l0 -80 80 0 80 0 0 80 0 80 -80 0 -80 0 0 -80z"/>
<path d="M1972 1372 l-82 -3 0 -79 0 -80 80 0 80 0 2 83 2 82 5 -80 6 -80 75
0 76 0 -2 70 c-1 38 -2 73 -3 77 -1 8 -132 14 -239 10z"/>
<path d="M3260 1295 l5 -80 76 0 75 0 -2 70 c-1 38 -2 73 -3 77 -1 3 -36 8
-78 10 l-78 3 5 -80z"/>
<path d="M1550 1290 l0 -80 80 0 80 0 0 80 0 80 -80 0 -80 0 0 -80z"/>
<path d="M1720 1290 l0 -80 80 0 80 0 0 80 0 80 -80 0 -80 0 0 -80z"/>
<path d="M2230 1290 l0 -79 80 0 80 1 0 79 0 79 -80 0 -80 0 0 -80z"/>
<path d="M2410 1291 l0 -79 79 -1 79 -1 1 80 1 80 -80 0 -80 0 0 -79z"/>
<path d="M2580 1290 l0 -80 80 0 80 0 0 80 0 80 -80 0 -80 0 0 -80z"/>
<path d="M2750 1292 l0 -78 78 1 77 0 1 77 1 78 -79 0 -78 0 0 -78z"/>
<path d="M2920 1292 l0 -77 75 0 c41 -1 76 2 76 5 1 3 2 38 3 78 l2 72 -78 0
-78 0 0 -78z"/>
<path d="M3090 1293 l0 -79 78 0 78 1 0 75 -1 75 -77 3 -78 3 0 -78z"/>
<path d="M3430 1292 l0 -78 78 0 77 1 1 77 0 78 -78 0 -78 0 0 -78z"/>
<path d="M3610 1290 l0 -80 80 0 80 0 0 80 0 80 -80 0 -80 0 0 -80z"/>
<path d="M3780 1290 l0 -80 80 0 80 0 0 80 0 80 -80 0 -80 0 0 -80z"/>
<path d="M3950 1290 l0 -79 80 0 80 1 0 79 0 79 -80 0 -80 0 0 -80z"/>
<path d="M4120 1290 l0 -80 78 0 79 0 0 80 1 80 -79 0 -79 0 0 -80z"/>
<path d="M4290 1291 l0 -80 80 0 80 0 0 79 0 80 -80 0 -80 0 0 -79z"/>
<path d="M4460 1290 l0 -80 80 0 80 0 0 80 0 80 -80 0 -80 0 0 -80z"/>
<path d="M4630 1290 l0 -80 80 0 80 0 0 80 0 80 -80 0 -80 0 0 -80z"/>
<path d="M1718 1163 c-2 -16 -1 -52 0 -80 l4 -53 79 0 79 0 0 80 0 80 -79 0
c-79 0 -80 0 -83 -27z"/>
<path d="M1890 1110 l0 -80 80 0 80 0 0 80 0 80 -80 0 -80 0 0 -80z"/>
<path d="M2060 1110 l0 -80 80 0 80 0 0 80 0 80 -80 0 -80 0 0 -80z"/>
<path d="M2232 1113 l3 -78 73 0 c39 0 73 2 73 5 1 3 2 38 3 78 l2 72 -78 0
-79 0 3 -77z"/>
<path d="M2410 1112 l0 -78 78 1 77 0 1 78 0 77 -78 0 -78 0 0 -78z"/>
<path d="M2580 1110 l0 -80 80 0 80 0 0 80 0 80 -80 0 -80 0 0 -80z"/>
<path d="M2750 1110 l0 -80 80 0 80 0 0 80 0 80 -80 0 -80 0 0 -80z"/>
<path d="M2922 1113 l3 -78 73 0 c39 -1 73 1 73 4 1 3 2 39 3 79 l2 72 -78 0
-79 0 3 -77z"/>
<path d="M3090 1112 l0 -78 78 0 79 1 -1 77 0 78 -78 0 -78 0 0 -78z"/>
<path d="M3260 1112 l0 -77 78 0 78 0 0 77 -1 78 -77 0 -78 0 0 -78z"/>
<path d="M3430 1112 l0 -77 78 0 77 -1 1 78 0 78 -78 0 -78 0 0 -78z"/>
<path d="M3610 1110 l0 -80 80 0 80 0 0 80 0 80 -80 0 -80 0 0 -80z"/>
<path d="M3780 1110 l0 -80 80 0 80 0 0 80 0 80 -80 0 -80 0 0 -80z"/>
<path d="M3950 1110 l0 -80 80 0 80 0 0 80 0 80 -80 0 -80 0 0 -80z"/>
<path d="M4120 1110 l0 -80 80 0 80 0 0 80 0 80 -80 0 -80 0 0 -80z"/>
<path d="M4290 1110 l0 -80 80 0 80 0 0 80 0 80 -80 0 -80 0 0 -80z"/>
<path d="M4460 1110 l0 -80 80 0 80 0 0 80 0 80 -80 0 -80 0 0 -80z"/>
<path d="M2143 1022 l-83 -3 0 -79 0 -80 80 0 79 0 4 83 3 82 2 -82 2 -83 80
0 80 0 0 79 0 80 -82 3 c-46 2 -120 2 -165 0z"/>
<path d="M1890 940 l0 -80 80 0 80 0 0 80 0 80 -80 0 -80 0 0 -80z"/>
<path d="M2410 940 l0 -80 80 0 80 0 0 80 0 80 -80 0 -80 0 0 -80z"/>
<path d="M2580 943 l0 -78 63 1 c34 1 69 2 78 3 13 1 15 14 14 74 l-1 72 -77
3 -77 3 0 -78z"/>
<path d="M2750 940 l0 -80 80 0 80 0 0 80 0 80 -80 0 -80 0 0 -80z"/>
<path d="M2920 940 l0 -80 80 0 80 0 0 80 0 80 -80 0 -80 0 0 -80z"/>
<path d="M3090 940 l0 -80 80 0 80 0 0 80 0 80 -80 0 -80 0 0 -80z"/>
<path d="M3260 940 l0 -80 80 0 80 0 0 80 0 80 -80 0 -80 0 0 -80z"/>
<path d="M3430 943 l0 -79 78 0 77 0 0 76 0 75 -77 3 -78 3 0 -78z"/>
<path d="M3610 940 l0 -80 80 0 80 0 0 80 0 80 -80 0 -80 0 0 -80z"/>
<path d="M3780 940 l0 -80 80 0 80 0 0 80 0 80 -80 0 -80 0 0 -80z"/>
<path d="M3950 940 l0 -80 80 0 80 0 0 80 0 80 -80 0 -80 0 0 -80z"/>
<path d="M4120 940 l0 -80 80 0 80 0 0 80 0 80 -80 0 -80 0 0 -80z"/>
<path d="M2410 770 l0 -80 80 0 80 0 0 80 0 80 -80 0 -80 0 0 -80z"/>
<path d="M2580 770 l0 -80 80 0 80 0 0 80 0 80 -80 0 -80 0 0 -80z"/>
<path d="M2750 770 l0 -80 80 0 80 0 0 80 0 80 -80 0 -80 0 0 -80z"/>
<path d="M2920 770 l0 -80 80 0 80 0 0 80 0 80 -80 0 -80 0 0 -80z"/>
<path d="M3090 770 l0 -80 80 0 80 0 0 80 0 80 -80 0 -80 0 0 -80z"/>
<path d="M3260 770 l0 -80 80 0 80 0 0 80 0 80 -80 0 -80 0 0 -80z"/>
<path d="M3430 770 l0 -80 80 0 80 0 0 80 0 80 -80 0 -80 0 0 -80z"/>
<path d="M3610 770 l0 -80 80 0 80 0 0 80 0 80 -80 0 -80 0 0 -80z"/>
<path d="M3780 770 l0 -80 80 0 80 0 0 80 0 80 -80 0 -80 0 0 -80z"/>
</g>
</svg>
